# xmcd CD database file
#
# Track frame offsets:
#	150
#	14702
#	25551
#	38245
#	55483
#	74943
#	85748
#	104239
#	120621
#	135367
#	151295
#	166381
#	182871
#
# Disc length: 2695 seconds
#
# Revision: 0
# Processed by: cddbd v1.5.1PL0 Copyright (c) Steve Scherf et al.
# Submitted via: cdripper 1,0,15,908
#
DISCID=b70a850d
DTITLE=Jim Brickman - Grace
DYEAR=2005
DGENRE=New Age
TTITLE0=Amazing Grace
TTITLE1=Israel
TTITLE2=Crown Him With Many Crowns
TTITLE3=Joyful
TTITLE4=Ave Maria
TTITLE5=Jesu
TTITLE6=How Great Thou Art
TTITLE7=Heaven
TTITLE8=Seventh Day
TTITLE9=Be Thou Near To Me
TTITLE10=O Sacred Head Now Wounded
TTITLE11=Holy Holy Holy
TTITLE12=Hear Me (Tears Into Wine)
EXTD=YEAR: 2005
EXTT0=
EXTT1=
EXTT2=
EXTT3=
EXTT4=
EXTT5=
EXTT6=
EXTT7=
EXTT8=
EXTT9=
EXTT10=
EXTT11=
EXTT12=
PLAYORDER=
